<mxfile host="app.diagrams.net" modified="2023-03-29T07:26:53.094Z" agent="Mozilla/5.0 (Windows NT 10.0; Win64; x64) AppleWebKit/537.36 (KHTML, like Gecko) Chrome/111.0.0.0 Safari/537.36" version="21.1.1" etag="c2tWZDdYLYM_Pt2Sn6nR" type="github">
  <diagram name="페이지-1" id="YaSmnB_-b98vtSdf8Laz">
    <mxGraphModel>
      <root>
        <mxCell id="0" />
        <mxCell id="1" parent="0" />
      </root>
    </mxGraphModel>
  </diagram>
</mxfile>
